<svg width="816" height="182" viewBox="0 0 816 182" fill="none" xmlns="http://www.w3.org/2000/svg">
<g clip-path="url(#clip0_1_35)">
<path d="M418.32 57.65H388.73V81.92H415.19V89.73H388.73V114.73H418.32V122.54H379.25V49.84H418.32V57.65Z" fill="white"/>
<path d="M515.09 90.26C515.09 78.59 508.84 72.65 499.46 72.65C490.08 72.65 483.31 78.8 483.31 91.09V122.55H473.93V90.26C473.93 78.59 467.68 72.65 458.3 72.65C448.92 72.65 442.15 78.8 442.15 91.09V122.55H432.67V65.46H442.15V73.69C445.9 67.65 452.67 64.42 460.17 64.42C469.55 64.42 477.36 68.59 481.11 77.13C484.44 68.9 492.57 64.42 501.32 64.42C514.34 64.42 524.45 72.55 524.45 88.9V122.55H515.07V90.26H515.09Z" fill="white"/>
<path d="M564.67 123.49C548.42 123.49 536.44 112.03 536.44 93.9C536.44 75.77 548 64.52 564.67 64.52C581.34 64.52 592.07 76.19 592.07 91.81C592.07 93.89 591.97 95.56 591.76 97.54H546.13C546.86 109.1 554.99 115.46 564.67 115.46C573.21 115.46 578.63 111.08 580.71 104.94H590.92C588 115.36 578.84 123.48 564.67 123.48V123.49ZM546.23 89.84H582.27C582.37 78.69 574.04 72.55 564.25 72.55C554.98 72.55 547.27 78.7 546.23 89.84Z" fill="white"/>
<path d="M614.04 122.55H604.56V65.46H614.04V74.73C617.27 68.38 623.42 64.42 632.48 64.42V74.21H629.98C620.92 74.21 614.04 78.27 614.04 91.5V122.54V122.55Z" fill="white"/>
<path d="M663.63 123.49C650.3 123.49 640.92 116.2 640.29 105.78H650.08C650.6 111.3 655.5 115.47 663.52 115.47C671.02 115.47 675.19 111.72 675.19 107.03C675.19 94.32 641.44 101.72 641.44 80.46C641.44 71.71 649.67 64.52 662.38 64.52C675.09 64.52 683.32 71.29 683.94 82.44H674.46C674.04 76.71 669.67 72.54 662.06 72.54C655.08 72.54 650.91 75.87 650.91 80.46C650.91 94 684.04 86.61 684.45 107.03C684.45 116.41 676.22 123.49 663.62 123.49H663.63Z" fill="white"/>
<path d="M722.69 123.49C706.54 123.49 694.25 112.03 694.25 93.9C694.25 75.77 706.96 64.52 723.1 64.52C739.24 64.52 751.96 75.87 751.96 93.9C751.96 111.93 738.94 123.49 722.69 123.49ZM722.69 115.16C732.59 115.16 742.27 108.39 742.27 93.91C742.27 79.43 732.79 72.76 723 72.76C713.21 72.76 703.93 79.53 703.93 93.91C703.93 108.29 712.78 115.16 722.68 115.16H722.69Z" fill="white"/>
<path d="M806.23 90.26C806.23 78.59 799.87 72.65 790.29 72.65C780.71 72.65 773.94 78.69 773.94 90.98V122.55H764.46V65.46H773.94V73.59C777.69 67.65 784.56 64.42 792.27 64.42C805.5 64.42 815.61 72.55 815.61 88.9V122.55H806.23V90.26Z" fill="white"/>
<path d="M97.68 -0.380005C97.68 -0.380005 56.47 10.63 55.18 56.43C55.18 56.43 59.47 117.84 56.9 123.35C56.9 123.35 97.68 118.98 97.68 59.31V-0.380005Z" fill="#3BC1AE"/>
<path d="M52.17 123.34C52.17 123.34 2.79997 135.88 0.219971 74.4L24.26 80.33C24.26 80.33 53.02 89.93 52.16 123.34" fill="#3BC1AE"/>
<path d="M279.7 36.89C279.7 36.89 244.46 45.84 242.62 1.95999L259.78 6.18999C272.37 11.03 280.41 23.42 279.7 36.89Z" fill="#3BC1AE"/>
<path d="M171.55 59.99C165.73 52.72 157.35 48.5 146.39 47.32C146.1 47.29 145.83 47.5 145.8 47.79C145.8 47.81 145.8 47.82 145.8 47.84V127.27C145.8 127.57 146.05 127.8 146.34 127.8C146.36 127.8 146.37 127.8 146.39 127.8C157.25 126.67 165.59 122.52 171.41 115.35C177.08 108.34 179.92 99.14 179.92 87.75C179.92 76.25 177.13 67 171.56 60M111.68 60C106.15 67.01 103.39 76.26 103.39 87.75C103.39 99.2 106.18 108.4 111.76 115.35C117.53 122.62 125.84 126.77 136.7 127.81C136.99 127.84 137.25 127.62 137.28 127.32C137.28 127.31 137.28 127.29 137.28 127.28V47.86C137.28 47.56 137.04 47.33 136.74 47.33C136.72 47.33 136.71 47.33 136.69 47.33C125.79 48.51 117.45 52.73 111.68 60Z" fill="#3BC1AE"/>
<path d="M186.12 62.45V112.69C186.12 120.34 192.32 126.54 199.97 126.54H202.48C210.13 126.54 216.33 120.34 216.33 112.69V62.45C216.33 54.8 210.13 48.6 202.48 48.6H199.98C192.33 48.6 186.13 54.8 186.13 62.45" fill="#3BC1AE"/>
<path d="M285.74 62.16V117.46C285.9 124.47 285.2 131.48 283.63 138.31C280.6 155.33 268.92 160.78 268.92 160.78C268.92 160.78 253.53 166.48 246.26 163.34C244.8 162.8 243.68 161.61 243.24 160.12C242.09 156.02 246.04 150.28 246.25 149.96H246.26C246.8 149.84 247.33 149.67 247.84 149.45C247.88 149.44 247.93 149.42 247.97 149.4C249.59 148.81 251.05 147.87 252.26 146.65C252.29 146.64 252.31 146.61 252.33 146.59C252.34 146.59 252.36 146.57 252.37 146.56C254.16 144.69 255.26 142.27 255.49 139.69H255.6C255.56 139.31 255.55 138.95 255.55 138.58V62.15C255.55 54.66 261.62 48.59 269.11 48.59H272.17C279.66 48.59 285.74 54.66 285.74 62.15" fill="#3BC1AE"/>
<path d="M322.91 83C321.93 82.91 320.62 82.86 318.96 82.86C317.93 82.86 316.94 82.88 315.97 82.93C299.9 83.72 291.88 91 291.88 104.76C291.88 113.07 294.86 119 300.81 122.54C302.3 123.42 303.89 124.14 305.54 124.67C305.55 124.67 305.56 124.67 305.57 124.68C322.52 128.77 323.03 114.18 323.03 114.18V83C323.03 83 322.95 82.99 322.91 82.99M326.03 64.13C326.03 64.13 326.09 64.12 326.12 64.12C326.15 64.12 326.15 64.12 326.17 64.1L326.03 64.13ZM326.03 64.13C325.8 64.16 325.5 64.2 325.17 64.27C325.5 64.21 325.8 64.17 326.03 64.13ZM336.13 47.26C332.09 47.37 328.07 47.8 324.11 48.54C323.83 48.59 323.63 48.86 323.68 49.14C323.7 49.27 323.77 49.39 323.88 49.47C326.95 51.69 329.3 54.75 330.66 58.29C331.81 62.33 332.31 66.52 332.13 70.72V120.1C332.43 123.29 333.37 126.52 335.94 126.52H354.83C358.36 125.99 361.12 123.18 361.57 119.64C361.57 119.6 361.58 119.56 361.58 119.53V76.19C361.58 56.9 353.1 47.26 336.13 47.25" fill="#3BC1AE"/>
<path d="M326.57 63.58C326.57 63.76 326.49 63.93 326.35 64.02C326.3 64.06 326.25 64.09 326.19 64.1C326.19 64.1 326.18 64.1 326.17 64.1C326.12 64.11 326.08 64.12 326.03 64.13C325.8 64.16 325.51 64.2 325.17 64.27C324.83 64.34 324.45 64.41 324.05 64.52C323.93 64.55 323.8 64.58 323.68 64.62C323.53 64.67 323.37 64.71 323.22 64.77C323.14 64.79 323.07 64.82 323 64.84C321.9 65.15 320.93 65.81 320.23 66.72C320.19 66.78 320.15 66.85 320.12 66.92C320.04 67.08 319.98 67.25 319.94 67.42C318.82 68.36 318.11 69.7 317.96 71.16C317.75 73.58 316.59 78.94 311.13 79.66C310.91 79.66 310.7 79.66 310.47 79.64C306.56 79.56 302.84 77.94 300.13 75.11C297.19 72.19 295.57 68.19 295.65 64.05C295.52 55.51 302.33 48.48 310.87 48.34C319.41 48.21 326.44 55.02 326.58 63.56" fill="#3BC1AE"/>
<path d="M310.46 79.65C310.68 79.67 310.89 79.67 311.12 79.67C310.9 79.7 310.68 79.69 310.46 79.65Z" fill="#3BC1AE"/>
<path d="M326.58 64.06C326.58 64.06 326.43 64.07 326.19 64.1C326.25 64.09 326.31 64.06 326.35 64.02L326.58 64.06Z" fill="#3BC1AE"/>
<path d="M249.99 62.29C250.06 66.32 248.45 70.19 245.55 72.99C244.28 74.27 242.79 75.31 241.15 76.06C239.87 76.65 238.51 77.04 237.11 77.23C237.08 77.23 237.04 77.24 237.01 77.23C224.77 78.03 229.51 70.72 229.51 70.72C230.44 68.62 230.44 66.22 229.51 64.12C228.1 60.72 221.23 59.89 219.98 59.76C219.98 59.75 219.98 59.74 219.99 59.74C221.3 52.56 227.52 47.32 234.81 47.24C238.82 47.19 242.68 48.78 245.49 51.65C248.4 54.41 250.02 58.26 249.97 62.27" fill="#3BC1AE"/>
<path d="M219.79 59.76H219.99C219.99 59.76 219.98 59.77 219.98 59.78C219.92 59.77 219.85 59.76 219.79 59.76Z" fill="#3BC1AE"/>
<path d="M241.15 76.06C239.92 76.77 238.53 77.17 237.11 77.23C238.51 77.04 239.87 76.64 241.15 76.06Z" fill="#3BC1AE"/>
<path d="M508.99 139.69H306.82C300.745 139.69 295.82 144.615 295.82 150.69V170.85C295.82 176.925 300.745 181.85 306.82 181.85H508.99C515.065 181.85 519.99 176.925 519.99 170.85V150.69C519.99 144.615 515.065 139.69 508.99 139.69Z" fill="white"/>
<path d="M321.53 151.02C323.18 151.02 324.7 151.37 326.07 152.06C327.44 152.76 328.5 153.7 329.22 154.91L326.71 156.58C326.14 155.74 325.4 155.08 324.51 154.61C323.62 154.14 322.62 153.9 321.52 153.9C319.62 153.9 318.04 154.53 316.8 155.78C315.56 157.03 314.94 158.66 314.94 160.65C314.94 162.64 315.56 164.26 316.8 165.52C318.04 166.78 319.62 167.4 321.52 167.4C322.62 167.4 323.61 167.17 324.49 166.71C325.37 166.25 326.11 165.59 326.7 164.73L329.14 166.52C328.34 167.7 327.28 168.61 325.95 169.28C324.62 169.94 323.14 170.27 321.53 170.27C319.65 170.27 317.98 169.86 316.49 169.03C315 168.2 313.86 167.06 313.03 165.59C312.21 164.12 311.8 162.47 311.8 160.64C311.8 158.81 312.21 157.16 313.03 155.69C313.85 154.22 315 153.07 316.49 152.25C317.98 151.43 319.65 151.01 321.53 151.01V151.02Z" fill="#133A60"/>
<path d="M362.61 169.94H349.06V151.36H362.44V154.17H352.06V159.17H362.08V161.98H352.06V167.12H362.61V169.93V169.94Z" fill="#133A60"/>
<path d="M399.16 169.94H396.45L386.09 156.5V169.94H383.08V151.36H385.79L396.17 164.8V151.36H399.17V169.94H399.16Z" fill="#133A60"/>
<path d="M433.13 154.2H427.12V169.94H424.12V154.2H418.11V151.36H433.13V154.2Z" fill="#133A60"/>
<path d="M499.85 169.94H486.3V151.36H499.68V154.17H489.3V159.17H499.32V161.98H489.3V167.12H499.85V169.93V169.94Z" fill="#133A60"/>
<path d="M459.72 151.36C461.87 151.36 463.5 151.82 464.62 152.73C465.74 153.65 466.3 154.98 466.3 156.73C466.3 158.31 465.74 159.58 464.62 160.55C463.5 161.52 462 162.05 460.1 162.12L466.22 169.93H462.5L456.58 162.12H455.07V169.93H452.07V151.35H459.71L459.72 151.36ZM455.08 154.17V159.4H459.64C460.85 159.4 461.75 159.18 462.32 158.74C462.89 158.3 463.18 157.63 463.18 156.73C463.18 155.83 462.89 155.21 462.3 154.79C461.72 154.37 460.83 154.17 459.63 154.17H455.07H455.08Z" fill="#133A60"/>
</g>
<defs>
<clipPath id="clip0_1_35">
<rect width="816" height="182" fill="white"/>
</clipPath>
</defs>
</svg>
